<?xml version="1.0"?>
<svg id="Layer_1" data-name="Layer 1" xmlns="http://www.w3.org/2000/svg" viewBox="0 0 676 832">
  <defs>
    
  </defs>
  <rect id="the_slash" data-name="the slash" class="cls-1" x="279.89" y="426.35" width="12.37" height="90.22" transform="translate(-167.27 157.47) rotate(-24.04)"></rect>
  <g id="wordmark">
    <g>
      <path class="cls-1" d="M178.71,406.61v-111.3h24.31l29.23,105.58h1.74v-105.58h12.15v111.3h-24.31l-29.23-105.58h-1.74v105.58h-12.15Z"></path>
      <path class="cls-1" d="M287.08,408.83c-10.71,0-19.17-3.42-25.39-10.26-6.22-6.84-9.33-16.67-9.33-29.49v-73.78h12.15v73.78c0,8.9,1.93,15.69,5.79,20.35,3.86,4.67,9.45,7,16.78,7s13.04-2.33,16.86-7c3.81-4.66,5.72-11.45,5.72-20.35v-73.78h12.15v73.78c0,12.83-3.11,22.66-9.33,29.49-6.22,6.84-14.69,10.26-25.39,10.26Z"></path>
      <path class="cls-1" d="M330.05,406.61v-111.3h12.15v98.9h52.96v12.4h-65.11Z"></path>
      <path class="cls-1" d="M404.71,406.61v-111.3h12.15v98.9h52.96v12.4h-65.11Z"></path>
      <path class="cls-1" d="M178.71,527.61v-111.3h37.11c7.12,0,13.04,1.41,17.74,4.21,4.7,2.81,8.21,6.49,10.54,11.05,2.32,4.56,3.49,9.54,3.49,14.95v4.77c0,4.13-1.06,8.27-3.19,12.4-2.13,4.13-5.42,7.31-9.87,9.54v1.91c2.97.42,5.29,1.67,6.98,3.74,1.68,2.07,2.52,4.96,2.52,8.67v40.07h-12.47v-37.21c0-2.75-.59-4.87-1.78-6.36-1.19-1.48-3.27-2.23-6.23-2.23h-32.36v45.79h-12.47ZM191.18,469.41h23.16c13.85,0,20.78-6.36,20.78-19.08v-2.86c0-5.62-1.71-10.15-5.12-13.59-3.41-3.44-8.63-5.17-15.66-5.17h-23.16v40.7Z"></path>
      <path class="cls-1" d="M287.08,529.83c-11.09,0-19.8-3.9-26.12-11.69-6.32-7.79-9.48-19.05-9.48-33.79v-24.8c0-14.31,3.16-25.46,9.48-33.47,6.32-8,15.02-12,26.12-12s19.92,4,26.19,12c6.27,8,9.4,19.16,9.4,33.47v24.8c0,14.73-3.14,26-9.4,33.79-6.27,7.79-15,11.69-26.19,11.69ZM287.08,517.43c7.81,0,13.67-2.97,17.58-8.9,3.91-5.94,5.86-14.31,5.86-25.12v-22.9c0-10.18-1.95-18.39-5.86-24.65-3.91-6.25-9.77-9.38-17.58-9.38s-13.67,3.13-17.58,9.38c-3.91,6.26-5.86,14.47-5.86,24.65v22.9c0,10.81,1.95,19.19,5.86,25.12,3.91,5.94,9.77,8.9,17.58,8.9Z"></path>
      <path class="cls-1" d="M363.77,529.83c-8.68,0-15.97-1.78-21.85-5.33-5.88-3.55-10.35-8.4-13.38-14.55-3.04-6.15-4.56-13.09-4.56-20.83v-4.77h12.15v3.82c0,9.65,2.46,16.93,7.38,21.86,4.92,4.93,11.67,7.39,20.26,7.39,7.52,0,13.19-1.85,17-5.57,3.81-3.71,5.72-8.53,5.72-14.47v-.95c0-5.83-1.95-10.28-5.86-13.36-3.91-3.07-10.25-5.3-19.03-6.68-10.13-1.59-18.21-4.74-24.24-9.46-6.03-4.72-9.04-11.85-9.04-21.39v-1.91c0-5.83,1.42-10.94,4.27-15.34,2.84-4.4,6.78-7.87,11.79-10.41,5.01-2.54,10.8-3.82,17.36-3.82,7.62,0,14.11,1.54,19.46,4.61,5.35,3.08,9.45,7.13,12.3,12.16,2.84,5.04,4.27,10.57,4.27,16.62v6.68h-12.15v-5.72c0-4.87-1.11-8.93-3.33-12.16-2.22-3.23-5.16-5.67-8.83-7.31-3.67-1.64-7.62-2.46-11.86-2.46-3.67,0-7.11.69-10.35,2.07-3.23,1.38-5.84,3.37-7.81,5.96-1.98,2.6-2.97,5.8-2.97,9.62v.95c0,6.15,2.27,10.63,6.8,13.44,4.53,2.81,11.33,4.96,20.4,6.44,10.61,1.7,18.42,5.09,23.44,10.18,5.01,5.09,7.52,11.87,7.52,20.35v1.91c0,9.65-2.97,17.47-8.9,23.45-5.93,5.99-14.59,8.98-25.97,8.98Z"></path>
      <path class="cls-1" d="M405.73,527.61v-111.3h63.2v12.4h-50.68v36.89h49.79v12.4h-49.79v37.21h51.58v12.4h-64.1Z"></path>
    </g>
  </g>
</svg>